<svg width="32" height="33" viewBox="0 0 32 33" fill="none" xmlns="http://www.w3.org/2000/svg">
<g clip-path="url(#clip0_657_4650)">
<path d="M25.4999 21.4631C25.0555 22.8328 24.389 24.0832 23.4945 25.2086C23.0786 25.7315 22.6343 26.243 22.1386 26.692C21.3695 27.3911 20.4409 27.59 19.4382 27.2888C18.8684 27.1183 18.3158 26.8909 17.7461 26.7204C16.6295 26.3794 15.547 26.5442 14.4702 26.9478C13.9404 27.1467 13.3992 27.3286 12.8409 27.4195C12.049 27.5502 11.3824 27.2035 10.7899 26.7034C9.91822 25.9702 9.25165 25.0551 8.64776 24.106C7.49123 22.2986 6.79618 20.315 6.5683 18.1836C6.38599 16.5013 6.54551 14.853 7.40008 13.3469C8.50533 11.4087 10.1746 10.3402 12.425 10.3516C13.0858 10.3573 13.7467 10.6301 14.4019 10.8063C14.8463 10.9256 15.2792 11.0961 15.7179 11.2439C16.0028 11.3405 16.2876 11.3405 16.5782 11.2439C17.3644 10.9768 18.1506 10.6983 18.9482 10.4709C21.0277 9.87984 23.4319 10.6471 24.7422 12.3011C24.7935 12.3693 24.8448 12.4375 24.8903 12.5057C21.3524 14.4608 21.5233 19.6841 25.4999 21.4631Z" fill="black"/>
<path d="M20.7198 4.93509C20.8394 6.15707 20.5033 7.21991 19.7968 8.17476C19.079 9.13529 18.2073 9.89689 16.9995 10.1754C16.8229 10.2152 16.6463 10.2322 16.464 10.2493C16.0481 10.2891 15.9968 10.2493 16.0082 9.84006C16.031 9.03298 16.2475 8.27706 16.652 7.58366C17.5351 6.07182 18.8682 5.21927 20.583 4.94077C20.6229 4.92941 20.6571 4.93509 20.7198 4.93509Z" fill="black"/>
</g>
<defs>
<clipPath id="clip0_657_4650">
<rect width="19" height="22.5185" fill="white" transform="translate(6.5 4.93509)"/>
</clipPath>
</defs>
</svg>
