<svg width="36" height="36" viewBox="0 0 36 36" fill="none" xmlns="http://www.w3.org/2000/svg">
<path d="M10.3599 9.32588C10.094 9.74591 9.73928 10.1028 9.3206 10.3715C8.90191 10.6402 8.42941 10.8141 7.93622 10.8812C7.37499 10.9608 6.81819 11.0463 6.26139 11.1392C4.70619 11.3972 3.59998 12.7639 3.59998 14.3369V26.759C3.59998 27.6387 3.95008 28.4825 4.57328 29.1045C5.19648 29.7266 6.04172 30.0761 6.92305 30.0761H29.0769C29.9582 30.0761 30.8035 29.7266 31.4267 29.1045C32.0499 28.4825 32.4 27.6387 32.4 26.759V14.3369C32.4 12.7639 31.2923 11.3972 29.7386 11.1392C29.1813 11.0465 28.623 10.9605 28.0637 10.8812C27.5708 10.8139 27.0986 10.6399 26.6802 10.3712C26.2618 10.1025 25.9073 9.74574 25.6416 9.32588L24.4275 7.38575C24.1549 6.94362 23.7795 6.57358 23.3332 6.30694C22.8869 6.04031 22.3828 5.88495 21.8636 5.854C19.2897 5.716 16.7102 5.716 14.1363 5.854C13.6171 5.88495 13.113 6.04031 12.6667 6.30694C12.2204 6.57358 11.8451 6.94362 11.5724 7.38575L10.3599 9.32588V9.32588Z" stroke="white" stroke-width="1.5" stroke-linecap="round" stroke-linejoin="round"/>
<path d="M24.6461 19.0191C24.6461 20.7786 23.9459 22.4661 22.6995 23.7102C21.4531 24.9543 19.7626 25.6533 18 25.6533C16.2373 25.6533 14.5468 24.9543 13.3004 23.7102C12.054 22.4661 11.3538 20.7786 11.3538 19.0191C11.3538 17.2596 12.054 15.5722 13.3004 14.3281C14.5468 13.0839 16.2373 12.385 18 12.385C19.7626 12.385 21.4531 13.0839 22.6995 14.3281C23.9459 15.5722 24.6461 17.2596 24.6461 19.0191V19.0191ZM27.9692 15.7021H27.981V15.7138H27.9692V15.7021Z" stroke="white" stroke-width="1.5" stroke-linecap="round" stroke-linejoin="round"/>
</svg>
