<svg width="28" height="28" viewBox="0 0 28 28" fill="none" xmlns="http://www.w3.org/2000/svg">
<path d="M18.2736 12.3125V7.25C18.2736 6.13112 17.8291 5.05806 17.0379 4.26689C16.2468 3.47572 15.1737 3.03125 14.0548 3.03125C12.9359 3.03125 11.8629 3.47572 11.0717 4.26689C10.2805 5.05806 9.83607 6.13112 9.83607 7.25V12.3125M22.6116 10.0704L24.0324 23.5704C24.1112 24.3185 23.5262 24.9688 22.7736 24.9688H5.33607C5.15856 24.9689 4.98299 24.9318 4.82077 24.8597C4.65854 24.7876 4.5133 24.6822 4.39447 24.5503C4.27565 24.4184 4.18589 24.263 4.13103 24.0942C4.07618 23.9254 4.05745 23.7469 4.07607 23.5704L5.49807 10.0704C5.53087 9.75938 5.67765 9.47154 5.91011 9.26235C6.14256 9.05316 6.44423 8.93744 6.75695 8.9375H21.3527C22.0007 8.9375 22.5441 9.42687 22.6116 10.0704ZM10.2579 12.3125C10.2579 12.4244 10.2135 12.5317 10.1344 12.6108C10.0553 12.6899 9.94796 12.7344 9.83607 12.7344C9.72418 12.7344 9.61688 12.6899 9.53776 12.6108C9.45865 12.5317 9.4142 12.4244 9.4142 12.3125C9.4142 12.2006 9.45865 12.0933 9.53776 12.0142C9.61688 11.9351 9.72418 11.8906 9.83607 11.8906C9.94796 11.8906 10.0553 11.9351 10.1344 12.0142C10.2135 12.0933 10.2579 12.2006 10.2579 12.3125V12.3125ZM18.6954 12.3125C18.6954 12.4244 18.651 12.5317 18.5719 12.6108C18.4928 12.6899 18.3855 12.7344 18.2736 12.7344C18.1617 12.7344 18.0544 12.6899 17.9753 12.6108C17.8961 12.5317 17.8517 12.4244 17.8517 12.3125C17.8517 12.2006 17.8961 12.0933 17.9753 12.0142C18.0544 11.9351 18.1617 11.8906 18.2736 11.8906C18.3855 11.8906 18.4928 11.9351 18.5719 12.0142C18.651 12.0933 18.6954 12.2006 18.6954 12.3125V12.3125Z" stroke="white" stroke-width="1.5" stroke-linecap="round" stroke-linejoin="round"/>
</svg>
