<svg width="32" height="33" viewBox="0 0 32 33" fill="none" xmlns="http://www.w3.org/2000/svg">
<path d="M24.8041 8.70328H7.22339C5.09485 8.70328 3.35352 10.4448 3.35352 12.5731V19.8155C3.35352 21.9441 5.09505 23.6854 7.22339 23.6854H24.7765C26.905 23.6854 28.6463 21.9439 28.6463 19.8155V12.5736C28.6739 10.4451 26.9323 8.70357 24.8038 8.70357L24.8041 8.70328ZM27.5684 19.8156C27.5684 21.336 26.3245 22.5799 24.8041 22.5799H7.22339C5.70299 22.5799 4.45912 21.336 4.45912 19.8156V12.5732C4.45912 11.0529 5.70299 9.80898 7.22339 9.80898H24.7765C26.2969 9.80898 27.5407 11.0529 27.5407 12.5732L27.5405 19.8156H27.5684Z" fill="#4B4B4B"/>
<path d="M9.04796 13.3472C9.04796 14.1106 8.4292 14.7294 7.66582 14.7294C6.90264 14.7294 6.28369 14.1106 6.28369 13.3472C6.28369 12.5838 6.90264 11.9651 7.66582 11.9651C8.4292 11.9651 9.04796 12.5838 9.04796 13.3472Z" fill="#4B4B4B"/>
<path d="M25.7438 19.0416C25.7438 19.805 25.1248 20.4237 24.3616 20.4237C23.5982 20.4237 22.9795 19.805 22.9795 19.0416C22.9795 18.2782 23.5982 17.6595 24.3616 17.6595C25.1248 17.6595 25.7438 18.2782 25.7438 19.0416Z" fill="#4B4B4B"/>
<path d="M16.4561 16.8578V18.1017C16.8984 17.9635 16.9535 17.6318 16.9535 17.466C16.926 17.1895 16.8153 17.0237 16.4561 16.8578Z" fill="#4B4B4B"/>
<path d="M15.2676 15.227C15.2676 15.4481 15.3781 15.5864 15.7099 15.7244V14.6464C15.4612 14.757 15.2676 14.9506 15.2676 15.227Z" fill="#4B4B4B"/>
<path d="M12.5858 12.7667C10.6784 14.6741 10.6784 17.7424 12.5858 19.6221C14.4932 21.5295 17.5615 21.5295 19.4412 19.6221C21.3486 17.7147 21.3486 14.6464 19.4412 12.7667C17.5616 10.8595 14.4655 10.8595 12.5858 12.7667ZM16.4559 18.9034V19.5391L15.7371 19.5393V18.9036C15.1843 18.8207 14.7144 18.5442 14.4103 18.1296L14.2998 17.9913L14.7973 17.3556L14.9631 17.5768C15.1013 17.7426 15.3501 17.9913 15.7371 18.102V16.6094C15.1565 16.4158 14.4932 16.1395 14.4932 15.2273C14.4932 14.5086 14.9907 13.9556 15.7371 13.8452V13.2094H16.4557V13.8452C16.9256 13.9281 17.3126 14.1768 17.6167 14.5362L17.7272 14.6745L17.202 15.3102L17.0088 15.0889C16.8429 14.8953 16.6493 14.7572 16.4282 14.6743V15.9735C16.981 16.1393 17.7274 16.471 17.7274 17.4661C17.7274 18.0465 17.3957 18.7651 16.4559 18.9034Z" fill="#4B4B4B"/>
</svg>
