<svg width="29" height="30" viewBox="0 0 29 30" fill="none" xmlns="http://www.w3.org/2000/svg">
<path d="M7.25024 12.7725H9.96899C10.6901 12.7725 11.3816 12.486 11.8914 11.9762C12.4013 11.4663 12.6877 10.7748 12.6877 10.0537V7.33496C12.6877 6.6139 12.4013 5.92238 11.8914 5.41251C11.3816 4.90265 10.6901 4.61621 9.96899 4.61621H7.25024C6.52919 4.61621 5.83766 4.90265 5.3278 5.41251C4.81793 5.92238 4.53149 6.6139 4.53149 7.33496V10.0537C4.53149 10.7748 4.81793 11.4663 5.3278 11.9762C5.83766 12.486 6.52919 12.7725 7.25024 12.7725ZM7.25024 24.5537H9.96899C10.6901 24.5537 11.3816 24.2673 11.8914 23.7574C12.4013 23.2475 12.6877 22.556 12.6877 21.835V19.1162C12.6877 18.3952 12.4013 17.7036 11.8914 17.1938C11.3816 16.6839 10.6901 16.3975 9.96899 16.3975H7.25024C6.52919 16.3975 5.83766 16.6839 5.3278 17.1938C4.81793 17.7036 4.53149 18.3952 4.53149 19.1162V21.835C4.53149 22.556 4.81793 23.2475 5.3278 23.7574C5.83766 24.2673 6.52919 24.5537 7.25024 24.5537ZM19.0315 12.7725H21.7502C22.4713 12.7725 23.1628 12.486 23.6727 11.9762C24.1826 11.4663 24.469 10.7748 24.469 10.0537V7.33496C24.469 6.6139 24.1826 5.92238 23.6727 5.41251C23.1628 4.90265 22.4713 4.61621 21.7502 4.61621H19.0315C18.3104 4.61621 17.6189 4.90265 17.109 5.41251C16.5992 5.92238 16.3127 6.6139 16.3127 7.33496V10.0537C16.3127 10.7748 16.5992 11.4663 17.109 11.9762C17.6189 12.486 18.3104 12.7725 19.0315 12.7725Z" stroke="white" stroke-width="1.5" stroke-linecap="round" stroke-linejoin="round"/>
<path d="M21.725 24.5425H19.0062C18.2852 24.5425 17.5936 24.2561 17.0838 23.7462C16.5739 23.2363 16.2875 22.5448 16.2875 21.8238V19.105C16.2875 18.384 16.5739 17.6924 17.0838 17.1826C17.5936 16.6727 18.2852 16.3863 19.0062 16.3863H21.725C22.446 16.3863 23.1376 16.6727 23.6474 17.1826C24.1573 17.6924 24.4437 18.384 24.4437 19.105V21.8238C24.4437 22.5448 24.1573 23.2363 23.6474 23.7462C23.1376 24.2561 22.446 24.5425 21.725 24.5425Z" stroke="white" stroke-width="1.5" stroke-linecap="round" stroke-linejoin="round"/>
</svg>
