<svg width="17" height="17" viewBox="0 0 17 17" fill="none" xmlns="http://www.w3.org/2000/svg">
<path d="M7.507 12.1667C7.79867 12.1667 8.035 11.9304 8.035 11.6387V8.36546C8.035 8.0738 7.79868 7.83746 7.507 7.83746C7.21534 7.83746 6.979 8.07379 6.979 8.36546V11.6387C6.979 11.9304 7.21533 12.1667 7.507 12.1667Z" fill="#E3000F"/>
<path d="M9.93522 12.1667C10.2269 12.1667 10.4632 11.9304 10.4632 11.6387V8.36546C10.4632 8.0738 10.2269 7.83746 9.93522 7.83746C9.64355 7.83746 9.40723 8.07379 9.40723 8.36546V11.6387C9.40723 11.9304 9.64367 12.1667 9.93522 12.1667Z" fill="#E3000F"/>
<path d="M14.1164 13.4998V4.12213H3.43506V13.4995C3.43506 14.8389 4.52072 15.9245 5.86009 15.9245H11.6915C13.0309 15.9247 14.1166 14.839 14.1166 13.4996L14.1164 13.4998ZM13.0606 13.4998C13.0606 14.2548 12.4463 14.869 11.6915 14.869L5.86009 14.8691C5.10509 14.8691 4.49094 14.2548 4.49094 13.4999L4.49082 5.17818H13.0606V13.4996L13.0606 13.4998Z" fill="#E3000F"/>
<path d="M3.81132 2.9804H13.7365C14.0282 2.9804 14.2645 2.74408 14.2645 2.4524C14.2645 2.16074 14.0282 1.9244 13.7365 1.9244H10.7779C10.8447 1.83604 10.8859 1.72697 10.8859 1.60765C10.8857 1.3161 10.6493 1.07977 10.3577 1.07977H7.19014C6.89848 1.07977 6.66214 1.3161 6.66214 1.60777C6.66214 1.7272 6.70322 1.83604 6.77018 1.92452L3.8112 1.92441C3.51954 1.92441 3.2832 2.16073 3.2832 2.45241C3.2832 2.74407 3.51964 2.9804 3.8112 2.9804L3.81132 2.9804Z" fill="#E3000F"/>
</svg>
