<svg width="42" height="31" viewBox="0 0 42 31" fill="none" xmlns="http://www.w3.org/2000/svg">
<path d="M0.0927238 14.6751C0.0927238 14.6287 0.0927238 14.6287 0.139153 14.5819C0.139153 14.5355 0.139153 14.5355 0.185581 14.4887C0.185581 14.4423 0.232002 14.3956 0.278744 14.3491L6.04848 5.97357C6.2345 5.74081 6.51368 5.55479 6.79287 5.55479L13.1216 5.5551V1.83252C13.1216 1.32057 13.5404 0.901794 14.0523 0.901794H31.2685C31.7805 0.901794 32.1993 1.32057 32.1993 1.83252C32.1993 2.34447 31.7805 2.76325 31.2685 2.76325H14.9824V22.6325C15.4012 23.2373 15.6804 23.9353 15.82 24.6332L26.2432 24.6329C26.662 22.2598 28.7559 20.4451 31.2685 20.4451C33.7812 20.4451 35.8751 22.2598 36.2939 24.6329H40.1093C40.6213 24.6329 41.04 25.0517 41.04 25.5636C41.04 26.0756 40.6213 26.4944 40.1093 26.4944H36.2939C35.8751 28.8675 33.7812 30.6822 31.2685 30.6822C28.7559 30.6822 26.662 28.8675 26.2432 26.4944H15.82C15.4012 28.8675 13.3073 30.6822 10.7946 30.6822C8.28197 30.6822 6.18808 28.8675 5.76929 26.4944H1.02314C0.511189 26.4944 0.0924072 26.0756 0.0924072 25.5636V14.8613V14.6752L0.0927238 14.6751ZM7.30513 7.41624L2.79173 13.9307H13.1216V7.41624H7.30513ZM31.2688 28.8202C33.0836 28.8202 34.5259 27.3779 34.5259 25.5632C34.5259 23.7485 33.0836 22.3061 31.2688 22.3061C29.4541 22.3061 28.0118 23.7485 28.0118 25.5632C28.0115 27.3779 29.4541 28.8202 31.2688 28.8202ZM10.795 28.8202C12.6097 28.8202 14.052 27.3779 14.052 25.5632C14.052 24.8188 13.7728 24.1208 13.3076 23.5157C12.7028 22.7713 11.7721 22.3061 10.795 22.3061C8.98024 22.3061 7.5379 23.7485 7.5379 25.5632C7.5379 27.3779 8.98024 28.8202 10.795 28.8202ZM1.95434 24.6324H5.76977V24.586C5.76977 24.5396 5.8162 24.4464 5.8162 24.4C5.8162 24.3068 5.86262 24.214 5.90936 24.1208C5.90936 24.0744 5.95579 23.9812 5.95579 23.9348C6.00222 23.8416 6.00222 23.7488 6.04896 23.6556C6.09539 23.6092 6.09538 23.516 6.14212 23.4696C6.18855 23.3764 6.23529 23.2836 6.28172 23.2368C6.32814 23.1904 6.32815 23.1437 6.37489 23.0508C6.42131 22.9576 6.46806 22.8648 6.51448 22.8181C6.56091 22.7716 6.56091 22.7249 6.60765 22.6785C6.65408 22.5853 6.74724 22.4924 6.79367 22.4457C6.8401 22.3993 6.8401 22.3525 6.88684 22.3061C6.98001 22.2129 7.07286 22.0733 7.16602 21.9805L7.49163 21.6549C7.53806 21.6085 7.5848 21.6085 7.5848 21.5617C7.67797 21.5153 7.77082 21.4221 7.86399 21.3757C7.91041 21.3293 7.95715 21.3293 8.00358 21.2825C8.09675 21.2361 8.1896 21.1894 8.23634 21.1429C8.28277 21.0965 8.32951 21.0965 8.42236 21.0498C8.51553 21.0033 8.60838 20.9566 8.65512 20.9102C8.70155 20.8637 8.79471 20.8637 8.84114 20.817C8.9343 20.7706 9.02715 20.7706 9.12032 20.7238C9.16675 20.7238 9.25992 20.6774 9.30634 20.6774C9.39951 20.631 9.49236 20.631 9.58553 20.5842C9.63195 20.5842 9.72512 20.5378 9.77154 20.5378C9.86471 20.5378 10.0043 20.4914 10.0972 20.4914H10.2367C10.4695 20.4446 10.6091 20.4446 10.7951 20.4446C10.9811 20.4446 11.2139 20.4446 11.3999 20.4911C11.4463 20.4911 11.5395 20.4911 11.5859 20.5375C11.7255 20.5375 11.8651 20.5839 11.9583 20.5839C12.0515 20.5839 12.0979 20.6304 12.191 20.6304C12.2842 20.6768 12.4238 20.6768 12.5167 20.7235C12.6098 20.77 12.6563 20.77 12.7494 20.8167C12.8426 20.8631 12.9354 20.9099 13.075 20.9563C13.075 20.9563 13.1215 20.9563 13.1215 21.0027L13.1218 15.7917H1.95433L1.95434 24.6324Z" fill="#08AFAF"/>
<path d="M31.2693 4.62439H35.9223C36.4342 4.62439 36.853 5.04317 36.853 5.55511C36.853 6.06706 36.4342 6.48584 35.9223 6.48584H31.2693C30.7574 6.48584 30.3386 6.06706 30.3386 5.55511C30.3386 5.04317 30.7574 4.62439 31.2693 4.62439Z" fill="#08AFAF"/>
<path d="M31.2693 9.74306H37.7834C38.2953 9.74306 38.7141 10.1618 38.7141 10.6738C38.7141 11.1857 38.2953 11.6045 37.7834 11.6045H31.2689C30.757 11.6045 30.3382 11.1857 30.3382 10.6738C30.3385 10.1618 30.7573 9.74306 31.2693 9.74306Z" fill="#08AFAF"/>
<path d="M40.1098 16.7227H31.2692C30.7572 16.7227 30.3385 16.3039 30.3385 15.792C30.3385 15.28 30.7572 14.8613 31.2692 14.8613H40.1098C40.6217 14.8613 41.0405 15.28 41.0405 15.792C41.0405 16.3039 40.6217 16.7227 40.1098 16.7227Z" fill="#08AFAF"/>
</svg>
