<svg width="17" height="17" viewBox="0 0 17 17" fill="none" xmlns="http://www.w3.org/2000/svg">
<g clip-path="url(#clip0_657_1307)">
<path d="M12.0978 3.84047L13.8564 5.59913M12.8564 10.1825V13.3491C12.8564 13.747 12.6984 14.1285 12.4171 14.4098C12.1358 14.6911 11.7543 14.8491 11.3564 14.8491H4.35645C3.95862 14.8491 3.57709 14.6911 3.29579 14.4098C3.01448 14.1285 2.85645 13.747 2.85645 13.3491V6.34913C2.85645 5.95131 3.01448 5.56978 3.29579 5.28847C3.57709 5.00717 3.95862 4.84913 4.35645 4.84913H7.52311M12.0978 3.84047L13.2224 2.71513C13.4569 2.48068 13.7749 2.34897 14.1064 2.34897C14.438 2.34897 14.756 2.48068 14.9904 2.71513C15.2249 2.94958 15.3566 3.26757 15.3566 3.59913C15.3566 3.9307 15.2249 4.24868 14.9904 4.48313L7.91111 11.5625C7.55866 11.9147 7.12402 12.1736 6.64645 12.3158L4.85645 12.8491L5.38978 11.0591C5.53196 10.5816 5.79087 10.1469 6.14311 9.79447L12.0978 3.84047V3.84047Z" stroke="#4B4B4B" stroke-width="1.5" stroke-linecap="round" stroke-linejoin="round"/>
</g>
<defs>
<clipPath id="clip0_657_1307">
<rect width="16" height="16" fill="white" transform="translate(0.856445 0.849136)"/>
</clipPath>
</defs>
</svg>
