<svg width="27" height="20" viewBox="0 0 27 20" fill="none" xmlns="http://www.w3.org/2000/svg">
<path d="M24.5039 19.0745H2.60921C1.47733 19.0745 0.55658 18.1538 0.55658 17.0219V2.65346C0.55658 1.52158 1.47733 0.60083 2.60921 0.60083H24.5039C25.6358 0.60083 26.5566 1.52158 26.5566 2.65346V17.0219C26.5566 18.1538 25.6358 19.0745 24.5039 19.0745ZM2.60921 1.96925C2.23198 1.96925 1.925 2.27623 1.925 2.65346V17.0219C1.925 17.3991 2.23198 17.7061 2.60921 17.7061H24.5039C24.8812 17.7061 25.1882 17.3991 25.1882 17.0219V2.65346C25.1882 2.27623 24.8812 1.96925 24.5039 1.96925H2.60921Z" fill="#404553" stroke="#404553" stroke-width="0.5"/>
<path d="M13.5565 12.6283C12.871 12.6283 12.1856 12.425 11.6009 12.0187L0.849487 4.52464L1.63203 3.4021L12.3824 10.8957C13.0842 11.3832 14.0288 11.3832 14.7319 10.8951L25.4814 3.4025L26.2639 4.52505L15.5135 12.0181C14.928 12.425 14.242 12.6283 13.5565 12.6283L13.5565 12.6283Z" fill="#404553" stroke="#404553" stroke-width="0.5"/>
</svg>
