<svg width="25" height="25" viewBox="0 0 25 25" fill="none" xmlns="http://www.w3.org/2000/svg">
<path d="M11.4512 6.77991H21.2012M11.4512 6.77991C11.4512 7.17773 11.2931 7.55926 11.0118 7.84057C10.7305 8.12187 10.349 8.27991 9.95117 8.27991C9.55335 8.27991 9.17182 8.12187 8.89051 7.84057C8.60921 7.55926 8.45117 7.17773 8.45117 6.77991M11.4512 6.77991C11.4512 6.38208 11.2931 6.00055 11.0118 5.71925C10.7305 5.43794 10.349 5.27991 9.95117 5.27991C9.55335 5.27991 9.17182 5.43794 8.89051 5.71925C8.60921 6.00055 8.45117 6.38208 8.45117 6.77991M4.70117 6.77991H8.45117M11.4512 18.7799H21.2012M11.4512 18.7799C11.4512 19.1777 11.2931 19.5593 11.0118 19.8406C10.7305 20.1219 10.349 20.2799 9.95117 20.2799C9.55335 20.2799 9.17182 20.1219 8.89051 19.8406C8.60921 19.5593 8.45117 19.1777 8.45117 18.7799M11.4512 18.7799C11.4512 18.3821 11.2931 18.0006 11.0118 17.7192C10.7305 17.4379 10.349 17.2799 9.95117 17.2799C9.55335 17.2799 9.17182 17.4379 8.89051 17.7192C8.60921 18.0006 8.45117 18.3821 8.45117 18.7799M4.70117 18.7799H8.45117M17.4512 12.7799H21.2012M17.4512 12.7799C17.4512 13.1777 17.2931 13.5593 17.0118 13.8406C16.7305 14.1219 16.349 14.2799 15.9512 14.2799C15.5533 14.2799 15.1718 14.1219 14.8905 13.8406C14.6092 13.5593 14.4512 13.1777 14.4512 12.7799M17.4512 12.7799C17.4512 12.3821 17.2931 12.0006 17.0118 11.7192C16.7305 11.4379 16.349 11.2799 15.9512 11.2799C15.5533 11.2799 15.1718 11.4379 14.8905 11.7192C14.6092 12.0006 14.4512 12.3821 14.4512 12.7799M4.70117 12.7799H14.4512" stroke="#08AFAF" stroke-width="1.5" stroke-linecap="round" stroke-linejoin="round"/>
</svg>
