<svg width="58" height="59" viewBox="0 0 58 59" fill="none" xmlns="http://www.w3.org/2000/svg">
<path d="M34.3986 32.9027C33.0842 32.9027 32.0044 33.9826 32.0044 35.2969C32.0044 36.6113 33.0842 37.6911 34.3986 37.6911C35.7601 37.6911 36.7928 36.6113 36.7928 35.2969C36.7928 33.9826 35.7133 32.9027 34.3986 32.9027Z" fill="#56DADA"/>
<path d="M23.6013 25.4383C24.9156 25.4383 25.9955 24.4057 25.9955 23.091C25.9955 21.7766 24.9156 20.6967 23.6013 20.6967C22.2397 20.6967 21.207 21.7294 21.207 23.0441C21.207 24.3588 22.2866 25.4383 23.6013 25.4383Z" fill="#56DADA"/>
<path d="M50.0788 26.8942L48.4356 24.4531C48.2947 24.1711 48.2479 23.8895 48.2479 23.5609L48.4356 20.6034C48.5296 18.9133 47.6374 17.3641 46.1354 16.6131L43.5063 15.2988C43.2246 15.1579 43.037 14.9703 42.8961 14.6886L41.5818 12.0595C40.8307 10.5572 39.2344 9.66531 37.5915 9.7593L34.6336 9.94666C34.3519 9.94666 34.0234 9.89982 33.7886 9.71183L31.3475 8.11579C29.9392 7.17678 28.1551 7.17678 26.7468 8.11579L24.3057 9.75899C23.9769 9.89983 23.6952 9.94666 23.3667 9.94666L20.4091 9.75899C18.7191 9.66499 17.1699 10.5572 16.4189 12.0592L15.1045 14.6883C14.9637 14.9699 14.776 15.1576 14.4943 15.2984L11.8653 16.6128C10.3629 17.3638 9.47106 18.9602 9.56506 20.6031L9.75242 23.561C9.75242 23.8426 9.70558 24.1711 9.51759 24.406L7.92155 26.847C6.98253 28.2554 6.98253 30.0863 7.92155 31.4478L9.56475 33.8889C9.70558 34.2177 9.75242 34.4993 9.75242 34.8279L9.56475 37.7854C9.47075 39.4755 10.3629 41.0247 11.865 41.7757L14.494 43.0901C14.7757 43.2309 14.9634 43.4657 15.1042 43.7002L16.4186 46.3293C17.1696 47.8317 18.7659 48.7235 20.4088 48.6295L23.3667 48.4422C23.6484 48.4422 23.9769 48.489 24.2117 48.677L26.6528 50.273C27.357 50.7424 28.1551 50.9772 28.953 50.9772C29.7512 50.9772 30.549 50.7424 31.2532 50.273L33.6943 48.6298C33.9291 48.489 34.2576 48.395 34.5393 48.395L37.4969 48.5827C39.1869 48.6767 40.7361 47.7845 41.4871 46.2824L42.8015 43.6534C42.9423 43.3717 43.13 43.184 43.4117 43.0432L46.0407 41.7288C47.5431 40.9778 48.4349 39.3815 48.3409 37.7386L48.2479 34.8279C48.2479 34.5462 48.2947 34.2177 48.4827 33.9828L50.0788 31.4946C51.0175 30.0863 51.0175 28.2554 50.0788 26.8942ZM23.6015 17.8332C26.4651 17.8332 28.8125 20.1806 28.8125 23.0441C28.8125 25.9077 26.4651 28.2551 23.6015 28.2551C20.6908 28.2551 18.3906 25.9548 18.3906 23.0441C18.3906 20.1806 20.7377 17.8332 23.6015 17.8332ZM21.0193 39.0995C20.7376 39.3811 20.362 39.522 20.0335 39.522C19.705 39.522 19.3293 39.3811 19.0476 39.0995C18.4843 38.583 18.4843 37.6911 19.0476 37.1278L36.9813 19.2415C37.4978 18.6782 38.3897 18.6782 38.953 19.2415C39.4695 19.8049 39.4695 20.6967 38.9062 21.2132L21.0193 39.0995ZM34.3988 40.555C31.5352 40.555 29.1878 38.2076 29.1878 35.344C29.1878 32.4805 31.5352 30.1331 34.3988 30.1331C37.3095 30.1331 39.6097 32.4333 39.6097 35.344C39.6097 38.2076 37.2627 40.555 34.3988 40.555Z" fill="#56DADA"/>
</svg>
