<svg width="32" height="33" viewBox="0 0 32 33" fill="none" xmlns="http://www.w3.org/2000/svg">
<path d="M10.7633 18.1832L10.1086 20.6613L7.71598 20.7128C6.99216 19.3461 6.60758 17.8213 6.59551 16.27C6.58343 14.7188 6.94422 13.188 7.64667 11.8098L9.77681 12.206L10.7103 14.3529C10.2906 15.5978 10.3094 16.9516 10.7633 18.184V18.1832Z" fill="#FBBB00"/>
<path d="M25.2393 14.4127C25.5584 16.1127 25.4149 17.8687 24.8243 19.4924C24.2336 21.116 23.2181 22.546 21.8867 23.6289L19.2035 23.4898L18.8238 21.0866C19.932 20.4281 20.7835 19.4036 21.2356 18.1847H16.207V14.4127H25.24H25.2393Z" fill="#518EF8"/>
<path d="M21.8865 23.6289C20.8104 24.5045 19.5575 25.1294 18.2166 25.4592C16.8757 25.7891 15.4796 25.8158 14.1273 25.5376C12.7751 25.2594 11.4998 24.6831 10.3917 23.8494C9.28373 23.0157 8.37017 21.9451 7.71582 20.7136L10.7632 18.1847C11.0494 18.958 11.4987 19.6585 12.0798 20.2374C12.6609 20.8162 13.3597 21.2594 14.1273 21.5359C14.8949 21.8125 15.7129 21.9157 16.5239 21.8383C17.335 21.7609 18.1196 21.5049 18.8229 21.0881L21.8865 23.6289Z" fill="#28B446"/>
<path d="M22.0025 8.85411L18.9558 11.383C18.2421 10.9324 17.4373 10.6508 16.6014 10.5591C15.7655 10.4673 14.92 10.5679 14.1277 10.8532C13.3354 11.1385 12.6167 11.6013 12.0252 12.2071C11.4337 12.8129 10.9845 13.5461 10.7111 14.3521L7.64746 11.8106C8.29372 10.5457 9.21128 9.44364 10.3327 8.58542C11.4542 7.7272 12.7511 7.1346 14.128 6.85116C15.505 6.56773 16.9272 6.60065 18.2899 6.94752C19.6527 7.29439 20.9216 7.94638 22.0032 8.85561L22.0025 8.85411Z" fill="#F14336"/>
</svg>
