<svg width="24" height="24" viewBox="0 0 24 24" fill="none" xmlns="http://www.w3.org/2000/svg">
<path d="M10.5386 3.40538L10.539 3.40508C11.3233 2.77611 12.6628 2.77393 13.4599 3.41456L13.4614 3.41579L20.3894 8.95414C20.3897 8.95438 20.39 8.95462 20.3903 8.95486C20.6463 9.16139 20.8961 9.52037 21.0628 9.95732C21.2294 10.394 21.283 10.8298 21.2298 11.1578C21.2297 11.1582 21.2296 11.1587 21.2296 11.1592L19.9004 19.1142C19.9003 19.1145 19.9003 19.1149 19.9002 19.1153C19.7208 20.1656 18.6625 21.06 17.5998 21.06H6.39978C5.32617 21.06 4.2787 20.1747 4.09938 19.1156C4.09935 19.1154 4.09932 19.1152 4.09929 19.115L2.76952 11.1564L2.76954 11.1564L2.76874 11.1518C2.71229 10.8264 2.76317 10.3927 2.92926 9.95732C3.09532 9.52206 3.34659 9.16366 3.60646 8.95709L3.60646 8.95709L3.60861 8.95538L10.5386 3.40538Z" fill="white" stroke="#061023" stroke-width="1.5" stroke-linecap="round" stroke-linejoin="round"/>
<path d="M12 18V15" stroke="#061023" stroke-width="1.5" stroke-linecap="round" stroke-linejoin="round"/>
</svg>
