<svg width="25" height="25" viewBox="0 0 25 25" fill="none" xmlns="http://www.w3.org/2000/svg">
<path d="M12.7016 0.837646C19.3293 0.837646 24.7016 6.20995 24.7016 12.8376C24.7016 19.4653 19.3293 24.8376 12.7016 24.8376C6.0739 24.8376 0.701599 19.4653 0.701599 12.8376C0.701599 6.20995 6.0739 0.837646 12.7016 0.837646ZM12.7016 3.23754C7.39975 3.23754 3.10129 7.5357 3.10129 12.8379C3.10129 18.14 7.39944 22.4382 12.7016 22.4382C18.0038 22.4382 22.3019 18.14 22.3019 12.8379C22.3019 7.5357 18.0038 3.23754 12.7016 3.23754ZM12.7016 10.4376C13.3169 10.4376 13.8242 10.7079 13.8935 11.056L13.9016 11.1377V18.1378C13.9016 18.5245 13.3644 18.8379 12.7016 18.8379C12.0863 18.8379 11.579 18.5677 11.5097 18.2196L11.5016 18.1378V11.1378C11.5016 10.751 12.0388 10.4376 12.7016 10.4376ZM12.7016 6.8376C13.3644 6.8376 13.9015 7.37498 13.9015 8.03775C13.9015 8.70052 13.3644 9.2377 12.7016 9.2377C12.0388 9.2377 11.5016 8.70052 11.5016 8.03775C11.5016 7.37498 12.0388 6.8376 12.7016 6.8376Z" fill="#404553"/>
</svg>
