<svg width="27" height="28" viewBox="0 0 27 28" fill="none" xmlns="http://www.w3.org/2000/svg">
<path d="M8.46615 5.19275C6.57238 5.19275 5.03711 6.78707 5.03711 8.75368V18.7243C5.03711 20.6909 6.57238 22.2852 8.46615 22.2852H13.9526C15.8464 22.2852 17.3817 20.6909 17.3817 18.7243V18.0121C17.3817 17.6188 17.0746 17.2999 16.6959 17.2999C16.3171 17.2999 16.01 17.6188 16.01 18.0121V18.7243C16.01 19.9043 15.0889 20.8608 13.9526 20.8608H8.46615C7.32983 20.8608 6.40873 19.9043 6.40873 18.7243V8.75368C6.40873 7.57365 7.32983 6.61712 8.46615 6.61712H13.9526C15.0889 6.61712 16.01 7.57365 16.01 8.75368V9.46586C16.01 9.85916 16.3171 10.1781 16.6959 10.1781C17.0746 10.1781 17.3817 9.85916 17.3817 9.46586V8.75368C17.3817 6.78707 15.8464 5.19275 13.9526 5.19275H8.46615Z" fill="#FF4545"/>
<path d="M18.9537 11.0987C18.686 11.3769 18.686 11.8277 18.9537 12.1059L19.8404 13.0266H11.8948C11.5161 13.0266 11.209 13.3455 11.209 13.7388C11.209 14.1321 11.5161 14.451 11.8948 14.451H19.8404L18.9537 15.3718C18.686 15.65 18.686 16.1008 18.9537 16.379C19.2216 16.657 19.6558 16.657 19.9237 16.379L21.9811 14.2425C22.0474 14.1736 22.0973 14.0943 22.1306 14.0094C22.1616 13.9312 22.1796 13.8461 22.1818 13.7568C22.1819 13.7509 22.1819 13.7449 22.1819 13.7388C22.1819 13.7274 22.1816 13.7161 22.1812 13.7047C22.1733 13.5339 22.1066 13.3656 21.9811 13.2352L19.9237 11.0987C19.6558 10.8206 19.2216 10.8206 18.9537 11.0987Z" fill="#FF4545"/>
</svg>
