<svg width="165" height="48" viewBox="0 0 165 48" fill="none" xmlns="http://www.w3.org/2000/svg">
<g clip-path="url(#clip0_268_8052)">
<path d="M49.4091 10.2728C49.1355 9.28227 48.5201 8.40859 47.6624 7.79277C46.8046 7.17696 45.7545 6.85493 44.6815 6.87864C33.6258 6.87864 22.5649 6.87864 11.4987 6.87864C11.0259 6.87864 10.8683 6.7533 10.7843 6.31712C10.5479 5.11887 10.259 3.92564 9.98058 2.73742C9.81765 1.95863 9.37457 1.2587 8.72801 0.758802C8.08145 0.258901 7.27212 -0.00951625 6.4401 8.4287e-06C4.72764 8.4287e-06 3.02044 8.4287e-06 1.31323 8.4287e-06C1.10643 -0.0119652 0.899564 0.0223725 0.709143 0.10028C0.463515 0.203501 0.260671 0.381531 0.132355 0.606512C0.00403849 0.831492 -0.0425088 1.09073 -3.10224e-06 1.34365C0.0522414 1.61125 0.20241 1.85244 0.423706 2.02416C0.645002 2.19589 0.923028 2.28698 1.20817 2.28119C2.86285 2.28119 4.52278 2.28119 6.1827 2.28119C7.0757 2.28119 7.45917 2.56696 7.64827 3.3942C7.97396 4.81304 8.28388 6.23189 8.60431 7.64572C10.4954 16.0986 12.3917 24.5532 14.2932 33.0094C14.5296 34.0673 14.8185 34.2778 15.9847 34.2778H28.5655C32.7223 34.2778 36.8774 34.2778 41.0307 34.2778C43.7307 34.2778 45.5955 32.7337 46.0683 30.1918C47.1188 24.5164 48.2272 18.8461 49.3093 13.1707C49.5725 12.2245 49.6066 11.2335 49.4091 10.2728ZM38.378 23.6491H33.8447C33.1814 23.6205 32.5553 23.3489 32.0966 22.8908C31.6379 22.4328 31.3818 21.8235 31.3818 21.1899C31.3818 20.5563 31.6379 19.947 32.0966 19.489C32.5553 19.0309 33.1814 18.7593 33.8447 18.7307H38.3832C38.7314 18.7157 39.0791 18.7682 39.4054 18.885C39.7317 19.0019 40.0298 19.1806 40.2817 19.4104C40.5336 19.6402 40.7342 19.9164 40.8712 20.2223C41.0081 20.5281 41.0788 20.8573 41.0788 21.1899C41.0788 21.5225 41.0081 21.8517 40.8712 22.1575C40.7342 22.4634 40.5336 22.7396 40.2817 22.9694C40.0298 23.1992 39.7317 23.3779 39.4054 23.4948C39.0791 23.6116 38.7314 23.6641 38.3832 23.6491H38.378ZM42.5488 14.2436C42.2646 14.5163 41.9265 14.7326 41.5541 14.8797C41.1817 15.0269 40.7824 15.1021 40.3793 15.1009H30.6982C30.5379 15.1009 30.3843 15.1617 30.271 15.2698C30.1577 15.3779 30.0941 15.5246 30.0941 15.6775V29.4999C30.0976 30.2506 29.807 30.9754 29.2792 31.532C28.7514 32.0886 28.0247 32.4367 27.2417 32.5081C26.8218 32.5356 26.4004 32.4803 26.0039 32.3455C25.6074 32.2106 25.2443 31.9993 24.9372 31.7245C24.6301 31.4498 24.3856 31.1175 24.2191 30.7486C24.0525 30.3796 23.9674 29.9819 23.9692 29.5801V15.6775C23.9678 15.525 23.9037 15.3791 23.7907 15.2712C23.6777 15.1634 23.5249 15.1022 23.3651 15.1009H18.7845C17.998 15.1043 17.2386 14.8269 16.6554 14.3232C16.0722 13.8195 15.7074 13.1258 15.6327 12.3785C15.6032 11.9782 15.6603 11.5763 15.8006 11.1979C15.9408 10.8196 16.1613 10.4729 16.4481 10.1793C16.7349 9.88585 17.082 9.65187 17.4677 9.49199C17.8534 9.33211 18.2694 9.24976 18.6899 9.25006H40.2585C41.0459 9.24678 41.806 9.52489 42.3893 10.0296C42.9726 10.5344 43.3368 11.2293 43.4103 11.9774C43.4448 12.392 43.3858 12.8088 43.2372 13.1997C43.0886 13.5907 42.8538 13.9466 42.5488 14.2436ZM45.4432 41.5074C45.2599 40.2038 44.6104 39.0007 43.6045 38.1016C42.5986 37.2025 41.2981 36.6628 39.9232 36.5738C38.5482 36.4847 37.1833 36.8518 36.0593 37.6129C34.9354 38.374 34.1215 39.4823 33.7554 40.7504C33.7489 40.8096 33.73 40.867 33.7 40.9191C33.6699 40.9713 33.6292 41.0172 33.5802 41.0541C33.5313 41.091 33.4751 41.1182 33.4149 41.1341C33.3548 41.1499 33.2919 41.1541 33.2301 41.1465C31.1289 41.1465 28.991 41.1465 26.874 41.1465C26.4013 41.1465 26.2279 41.0261 26.0913 40.5849C25.6652 39.271 24.7569 38.1478 23.5332 37.4215C22.3094 36.6951 20.8523 36.4143 19.4291 36.6306C18.006 36.8469 16.7122 37.5457 15.7854 38.5989C14.8585 39.6521 14.3606 40.989 14.3832 42.3643C14.4057 43.7395 14.947 45.0609 15.9079 46.086C16.8688 47.111 18.1848 47.7709 19.6143 47.9447C21.0439 48.1184 22.4911 47.7943 23.6905 47.0318C24.8899 46.2693 25.761 45.1196 26.1439 43.7936C26.2384 43.4878 26.3592 43.3975 26.6692 43.4026C28.8229 43.4226 30.9748 43.4226 33.125 43.4026C33.2007 43.3846 33.2796 43.383 33.356 43.3978C33.4324 43.4126 33.5043 43.4434 33.5667 43.4881C33.6291 43.5327 33.6802 43.59 33.7165 43.6559C33.7528 43.7218 33.7732 43.7945 33.7764 43.8688C34.177 45.1879 35.0628 46.3248 36.271 47.0708C37.4792 47.8167 38.9288 48.1217 40.3536 47.9297C41.7784 47.7377 43.0829 47.0616 44.0275 46.0255C44.972 44.9894 45.4934 43.6629 45.4957 42.2895C45.4537 42.0288 45.4589 41.7631 45.4169 41.5074H45.4432ZM10.6635 31.9816C9.24516 31.9816 7.82687 31.9816 6.41383 31.9816C4.72239 31.9816 3.03094 31.9816 1.3395 31.9816C1.17197 31.9689 1.00351 31.9897 0.84488 32.0427C0.686252 32.0957 0.540946 32.1796 0.418248 32.2892C0.29555 32.3988 0.198159 32.5317 0.132299 32.6792C0.0664392 32.8268 0.0335593 32.9859 0.0357607 33.1462C0.0379621 33.3066 0.0751963 33.4648 0.145084 33.6107C0.214971 33.7565 0.315975 33.8869 0.441639 33.9934C0.567303 34.0999 0.714864 34.1802 0.874891 34.2292C1.03492 34.2782 1.20389 34.2947 1.37101 34.2778C2.94689 34.2778 4.48075 34.2778 6.03037 34.2778H10.6424C10.9079 34.302 11.1744 34.2438 11.4024 34.112C11.6305 33.9801 11.8079 33.7816 11.9084 33.5459C11.9832 33.3603 12.0065 33.1595 11.9761 32.9628C11.9456 32.7661 11.8623 32.5803 11.7344 32.4234C11.6065 32.2665 11.4382 32.1438 11.246 32.0673C11.0537 31.9908 10.844 31.963 10.6372 31.9866L10.6635 31.9816ZM8.29964 25.1281C7.53271 25.1281 6.76053 25.1281 5.9936 25.1281C5.22667 25.1281 4.45449 25.1281 3.68756 25.1281C3.52326 25.1177 3.35847 25.1396 3.20341 25.1925C3.04834 25.2454 2.9063 25.3281 2.78608 25.4355C2.66587 25.5428 2.57003 25.6727 2.50451 25.8168C2.43899 25.961 2.40519 26.1165 2.40519 26.2737C2.40519 26.4308 2.43899 26.5863 2.50451 26.7305C2.57003 26.8747 2.66587 27.0045 2.78608 27.1119C2.9063 27.2193 3.04834 27.302 3.20341 27.3548C3.35847 27.4077 3.52326 27.4296 3.68756 27.4193C5.24243 27.4393 6.7973 27.4393 8.35217 27.4193C8.51014 27.417 8.66608 27.385 8.81111 27.3252C8.95613 27.2653 9.08738 27.1788 9.19738 27.0706C9.30737 26.9623 9.39395 26.8345 9.45217 26.6943C9.51039 26.5541 9.53912 26.4044 9.5367 26.2536C9.53429 26.1028 9.50078 25.954 9.4381 25.8156C9.37542 25.6772 9.28478 25.5519 9.17138 25.4469C9.05797 25.3419 8.924 25.2593 8.77713 25.2037C8.63026 25.1482 8.47337 25.1207 8.3154 25.1231L8.29964 25.1281Z" fill="white"/>
<path d="M63.8284 15.3967H56.8998L57.5511 11.822H75.5425L74.8858 15.3967H67.952L64.7687 32.6835H60.6451L63.8284 15.3967Z" fill="white"/>
<path d="M87.7503 24.1303C87.8133 28.8682 84.2203 33.0144 78.295 33.0144C73.9193 33.0144 71.5135 30.2118 71.4662 26.6321C71.4277 25.461 71.6384 24.2946 72.0855 23.2033C72.5327 22.1121 73.2069 21.1187 74.0676 20.2832C74.9283 19.4477 75.9575 18.7873 77.0931 18.3421C78.2287 17.8969 79.4471 17.6761 80.6746 17.6929C85.003 17.6929 87.724 20.5557 87.7503 24.1303ZM75.3534 26.1358C75.3534 28.0159 76.446 29.6854 78.8203 29.6854C82.0036 29.6854 83.8789 27.0934 83.8789 24.6718C83.8789 22.7667 82.6602 21.0069 80.4119 21.0069C77.2864 21.0019 75.3534 23.624 75.3534 26.1257V26.1358Z" fill="white"/>
<path d="M106.141 24.1303C106.204 28.8682 102.611 33.0144 96.6856 33.0144C92.3099 33.0144 89.9093 30.2118 89.8568 26.6321C89.8183 25.461 90.029 24.2946 90.4761 23.2033C90.9232 22.1121 91.5975 21.1187 92.4582 20.2832C93.3189 19.4477 94.3481 18.7873 95.4837 18.3421C96.6193 17.8969 97.8376 17.6761 99.0652 17.6929C103.394 17.6929 106.109 20.5557 106.141 24.1303ZM93.7439 26.1358C93.7439 28.0159 94.8365 29.6854 97.2109 29.6854C100.394 29.6854 102.269 27.0934 102.269 24.6718C102.269 22.7667 101.051 21.0069 98.8025 21.0069C95.677 21.0019 93.7439 23.624 93.7439 26.1257V26.1358Z" fill="white"/>
<path d="M108.074 32.6835L111.919 11.8521H127.646L126.958 15.5772H115.349L114.299 21.3278H125.262L124.605 24.9676H113.632L112.197 32.6835H108.074Z" fill="white"/>
<path d="M141.766 17.9887H145.391L142.675 32.6835H139.145L139.271 30.6781C138.084 32.4078 135.552 33.0946 133.834 33.1197C129.868 33.1498 127.09 30.7382 127.121 26.7725C127.153 21.408 131.465 17.6829 136.398 17.6829C138.551 17.6829 140.112 18.2193 141.125 19.563L141.766 17.9887ZM131.024 26.0957C130.935 28.422 132.495 29.7957 134.701 29.7957C140.695 29.7957 142.633 20.8816 136.639 20.8816C135.911 20.8696 135.188 20.9953 134.511 21.2513C133.834 21.5073 133.217 21.8886 132.695 22.3732C132.173 22.8579 131.756 23.4363 131.47 24.0751C131.183 24.714 131.031 25.4007 131.024 26.0957Z" fill="white"/>
<path d="M165 17.9637L155.723 32.7437H151.605L147.734 17.9637H151.81L153.029 22.8218L154.216 29.1389L157.746 22.877L160.777 17.9637H165Z" fill="white"/>
</g>
<defs>
<clipPath id="clip0_268_8052">
<rect width="165" height="48" fill="white"/>
</clipPath>
</defs>
</svg>
