<svg width="24" height="24" viewBox="0 0 24 24" fill="none" xmlns="http://www.w3.org/2000/svg">
<path d="M11.9958 20.8958C11.2108 20.8995 10.4574 20.5872 9.90512 20.0294L3.3317 13.471C1.80559 11.9234 1.22105 9.67905 1.79836 7.58342C2.3755 5.48805 4.02693 3.85953 6.13013 3.31179C8.23338 2.76389 10.4692 3.3799 11.9954 4.92753C13.0353 3.86689 14.4276 3.22367 15.9093 3.11923C17.391 3.01479 18.8596 3.4564 20.0379 4.36064C21.2165 5.26505 22.023 6.56936 22.3055 8.0277C22.6856 9.94936 22.1083 11.9357 20.7572 13.3544L14.0822 20.0294C13.5301 20.5852 12.7785 20.8971 11.9952 20.8958H11.9958ZM7.64117 4.61528C7.44828 4.61478 7.25573 4.62739 7.06468 4.65295C5.93274 4.80262 4.89784 5.3707 4.16361 6.24514C3.42955 7.11976 3.0495 8.23758 3.09845 9.37842C3.1474 10.5193 3.6216 11.6004 4.42782 12.409L10.9711 18.9673C11.2432 19.2383 11.6118 19.3901 11.9958 19.3891C12.3793 19.3903 12.7473 19.2367 13.0165 18.9635L19.6765 12.3035C20.6757 11.2316 21.0965 9.74333 20.8066 8.30685C20.5762 7.12985 19.8926 6.09043 18.9033 5.41268C17.9139 4.7348 16.6979 4.47262 15.517 4.68284C14.3363 4.89305 13.2855 5.55866 12.5908 6.53639C12.4493 6.735 12.2206 6.85288 11.9768 6.85271C11.7329 6.85288 11.5042 6.735 11.3628 6.53639C10.5048 5.33299 9.11893 4.61779 7.64108 4.61525L7.64117 4.61528Z" fill="#4B4B4B"/>
</svg>
