<svg width="21" height="21" viewBox="0 0 21 21" fill="none" xmlns="http://www.w3.org/2000/svg">
<g clip-path="url(#clip0_657_1303)">
<path d="M9.61719 1.60826H7.74219C7.24491 1.60826 6.76799 1.80581 6.41636 2.15744C6.06473 2.50907 5.86719 2.98598 5.86719 3.48326V17.2333C5.86719 17.7305 6.06473 18.2075 6.41636 18.5591C6.76799 18.9107 7.24491 19.1083 7.74219 19.1083H13.9922C14.4895 19.1083 14.9664 18.9107 15.318 18.5591C15.6696 18.2075 15.8672 17.7305 15.8672 17.2333V3.48326C15.8672 2.98598 15.6696 2.50907 15.318 2.15744C14.9664 1.80581 14.4895 1.60826 13.9922 1.60826H12.1172M9.61719 1.60826V2.85826H12.1172V1.60826M9.61719 1.60826H12.1172M9.61719 17.2333H12.1172" stroke="#4B4B4B" stroke-width="1.5" stroke-linecap="round" stroke-linejoin="round"/>
</g>
<defs>
<clipPath id="clip0_657_1303">
<rect width="20" height="20" fill="white" transform="translate(0.867188 0.358261)"/>
</clipPath>
</defs>
</svg>
