<svg width="28" height="29" viewBox="0 0 28 29" fill="none" xmlns="http://www.w3.org/2000/svg">
<path d="M20.979 22.3478C20.1638 21.2685 19.1091 20.3932 17.898 19.7909C16.6869 19.1886 15.3526 18.8758 14 18.877C12.6474 18.8758 11.313 19.1886 10.1019 19.7909C8.89085 20.3932 7.83617 21.2685 7.02098 22.3478M20.9778 22.3478C22.5686 20.9329 23.6916 19.0678 24.198 16.9999C24.7044 14.9321 24.5703 12.7591 23.8134 10.7692C23.0564 8.77935 21.7125 7.06658 19.9598 5.85805C18.2071 4.64953 16.1284 4.00235 13.9994 4.00235C11.8704 4.00235 9.79173 4.64953 8.03901 5.85805C6.2863 7.06658 4.94236 8.77935 4.18543 10.7692C3.4285 12.7591 3.29435 14.9321 3.80076 16.9999C4.30718 19.0678 5.43022 20.9329 7.02098 22.3478M20.9778 22.3478C19.0575 24.0607 16.5732 25.0057 14 25.002C11.4263 25.006 8.94158 24.061 7.02098 22.3478M17.5 11.877C17.5 12.8053 17.1312 13.6955 16.4748 14.3519C15.8185 15.0083 14.9282 15.377 14 15.377C13.0717 15.377 12.1815 15.0083 11.5251 14.3519C10.8687 13.6955 10.5 12.8053 10.5 11.877C10.5 10.9487 10.8687 10.0585 11.5251 9.40213C12.1815 8.74575 13.0717 8.37701 14 8.37701C14.9282 8.37701 15.8185 8.74575 16.4748 9.40213C17.1312 10.0585 17.5 10.9487 17.5 11.877V11.877Z" stroke="white" stroke-width="1.5" stroke-linecap="round" stroke-linejoin="round"/>
</svg>
