<svg width="46" height="16" viewBox="0 0 46 16" fill="none" xmlns="http://www.w3.org/2000/svg">
<path d="M19.9314 15.4828H16.2861L18.5662 0.962418H22.2113L19.9314 15.4828Z" fill="#00579F"/>
<path d="M33.1459 1.31739C32.4269 1.02359 31.2865 0.699203 29.8763 0.699203C26.2765 0.699203 23.7415 2.67635 23.7259 5.50306C23.696 7.58861 25.5409 8.74697 26.9207 9.44236C28.331 10.1529 28.8105 10.6167 28.8105 11.2501C28.7961 12.2229 27.6708 12.6713 26.6213 12.6713C25.1659 12.6713 24.3861 12.4401 23.2011 11.8989L22.721 11.6669L22.2109 14.9264C23.0659 15.3276 24.6411 15.6836 26.2765 15.6992C30.1014 15.6992 32.5915 13.7527 32.621 10.7403C32.6356 9.08738 31.6614 7.82082 29.5612 6.78585C28.2862 6.12146 27.5054 5.67347 27.5054 4.99369C27.5203 4.3757 28.1658 3.74273 29.605 3.74273C30.7901 3.71173 31.6608 4.00512 32.3204 4.29871L32.6501 4.4529L33.1459 1.31739Z" fill="#00579F"/>
<path d="M37.9915 10.3388C38.2917 9.50458 39.4468 6.27607 39.4468 6.27607C39.4317 6.30707 39.7464 5.42649 39.9265 4.88591L40.1812 6.13707C40.1812 6.13707 40.8715 9.61278 41.0214 10.3388C40.4517 10.3388 38.7115 10.3388 37.9915 10.3388ZM42.4911 0.962418H39.6715C38.802 0.962418 38.1414 1.2248 37.7662 2.16718L32.3516 15.4826H36.1765C36.1765 15.4826 36.8062 13.6905 36.9415 13.3045C37.3612 13.3045 41.082 13.3045 41.6218 13.3045C41.7265 13.8143 42.0568 15.4826 42.0568 15.4826H45.432L42.4911 0.962418Z" fill="#00579F"/>
<path d="M13.2412 0.962418L9.67121 10.8639L9.2811 8.85579C8.62109 6.53866 6.55115 4.02114 4.24121 2.76936L7.51117 15.4674H11.366L17.0958 0.962418H13.2412Z" fill="#00579F"/>
<path d="M6.3566 0.962418H0.491641L0.431641 1.25581C5.00667 2.46078 8.03663 5.36531 9.2815 8.85641L8.00653 2.18299C7.79662 1.2556 7.15156 0.993009 6.3566 0.962418Z" fill="#FAA61A"/>
</svg>
