<svg width="32" height="33" viewBox="0 0 32 33" fill="none" xmlns="http://www.w3.org/2000/svg">
<path d="M25.5375 10.1718L7.78124 10.1697C7.44271 10.1697 7.16816 9.89501 7.16816 9.55631C7.16816 9.21795 7.44254 8.94376 7.78124 8.94376L23.2202 8.94137C23.6254 8.94137 23.9541 8.61256 23.9541 8.20747C23.9541 7.80188 23.6256 7.47357 23.2202 7.47357H7.28895C6.34502 7.47357 5.57666 8.24194 5.57666 9.18586V24.6274C5.57666 25.1161 5.97287 25.5127 6.46222 25.5127C12.3181 25.5127 18.748 25.513 25.5379 25.513C26.0271 25.513 26.4235 25.1165 26.4235 24.6277L26.4233 11.0575C26.4233 10.5682 26.0268 10.1718 25.5375 10.1718ZM25.0683 16.1553H20.2716C19.3649 16.1553 18.6298 15.4204 18.6298 14.5137C18.6298 13.6064 19.3649 12.8715 20.2716 12.8715H25.0683V16.1553ZM19.73 14.5137C19.73 14.9022 20.0448 15.2173 20.4336 15.2173C20.8225 15.2173 21.1373 14.902 21.1373 14.5137C21.1373 14.1248 20.8225 13.81 20.4336 13.81C20.0448 13.81 19.73 14.1248 19.73 14.5137Z" fill="#4B4B4B"/>
</svg>
