<svg width="28" height="28" viewBox="0 0 28 28" fill="none" xmlns="http://www.w3.org/2000/svg">
<path d="M13.9955 23.7118L13.9953 23.8304L13.9951 23.7118H13.9944L13.994 24.1591L13.9919 23.7118C13.2552 23.7152 12.5481 23.4221 12.0298 22.8986L12.0269 22.8957L4.3617 15.2481C4.36109 15.2475 4.36048 15.2469 4.35987 15.2463C2.74802 13.6104 2.13079 11.2388 2.74083 9.02437L2.74084 9.02434C3.35092 6.80937 5.09663 5.08788 7.31985 4.50889L7.3199 4.50888C9.54315 3.92971 11.9066 4.58086 13.5199 6.21687L13.996 6.69962L14.4706 6.21551C15.5699 5.0944 17.0415 4.4145 18.6077 4.3041C20.1739 4.19371 21.7262 4.66049 22.9717 5.61628C24.2175 6.57227 25.07 7.95094 25.3686 9.49244L25.3691 9.49499C25.77 11.5218 25.1624 13.6167 23.7395 15.1146L15.9578 22.8962L15.9562 22.8978C15.4376 23.4199 14.7315 23.713 13.9955 23.7118ZM8.91576 4.71778L8.91575 4.71782C8.66089 4.71718 8.40654 4.73385 8.15424 4.76759C6.66868 4.96414 5.31056 5.70973 4.34701 6.8573L4.34692 6.85741C3.38343 8.00539 2.88458 9.4726 2.94882 10.9701C3.01307 12.4674 3.63548 13.8865 4.69371 14.9478L4.69386 14.948L12.3277 22.5994L12.3293 22.601C12.7714 23.0412 13.3704 23.2884 13.9947 23.2873C14.6201 23.2887 15.2197 23.0386 15.6588 22.594C15.6595 22.5933 15.6602 22.5926 15.6609 22.5919L23.4273 14.8255L23.4356 14.8172L23.4436 14.8087C24.7556 13.4013 25.3082 11.4474 24.9282 9.56134C24.6255 8.0174 23.7286 6.65399 22.4306 5.76483C21.1322 4.87515 19.5362 4.53105 17.9864 4.80695L18.1032 5.4633L17.9864 4.80695C16.4369 5.08282 15.0577 5.95631 14.146 7.23935C14.1061 7.29521 14.0418 7.3282 13.9734 7.32815L13.9725 7.32815C13.9039 7.3282 13.8395 7.29508 13.7997 7.23908L13.7994 7.23875C12.6735 5.65959 10.8549 4.72111 8.91576 4.71778Z" fill="white" stroke="white" stroke-width="1.33333"/>
</svg>
